<?xml version="1.0" encoding="UTF-8" standalone="no"?>
<!-- Created with Inkscape (http://www.inkscape.org/) -->

<svg
   xmlns:dc="http://purl.org/dc/elements/1.1/"
   xmlns:cc="http://creativecommons.org/ns#"
   xmlns:rdf="http://www.w3.org/1999/02/22-rdf-syntax-ns#"
   xmlns:svg="http://www.w3.org/2000/svg"
   xmlns="http://www.w3.org/2000/svg"
   xmlns:sodipodi="http://sodipodi.sourceforge.net/DTD/sodipodi-0.dtd"
   xmlns:inkscape="http://www.inkscape.org/namespaces/inkscape"
   width="653"
   height="83"
   viewBox="0 0 652.99997 83"
   id="svg3415"
   version="1.1"
   inkscape:version="0.91 r13725"
   sodipodi:docname="logo.svg">
  <defs
     id="defs3417" />
  <sodipodi:namedview
     id="base"
     pagecolor="#ffffff"
     bordercolor="#666666"
     borderopacity="1.0"
     inkscape:pageopacity="0.0"
     inkscape:pageshadow="2"
     inkscape:zoom="0.35"
     inkscape:cx="1153.6325"
     inkscape:cy="-25.610471"
     inkscape:document-units="px"
     inkscape:current-layer="layer1"
     showgrid="false"
     units="px"
     inkscape:window-width="1366"
     inkscape:window-height="705"
     inkscape:window-x="-8"
     inkscape:window-y="-8"
     inkscape:window-maximized="1" />
  <metadata
     id="metadata3420">
    <rdf:RDF>
      <cc:Work
         rdf:about="">
        <dc:format>image/svg+xml</dc:format>
        <dc:type
           rdf:resource="http://purl.org/dc/dcmitype/StillImage" />
        <dc:title></dc:title>
      </cc:Work>
    </rdf:RDF>
  </metadata>
  <g
     inkscape:label="Layer 1"
     inkscape:groupmode="layer"
     id="layer1"
     transform="translate(0,-969.36)">
    <path
       inkscape:connector-curvature="0"
       id="path2"
       style="fill:#40e0d0;fill-rule:evenodd"
       d="m -611.31664,8.3428773 0.009,2.9991997 c 0.2213,-0.1514 0.9853,-0.6679 0.9975,-0.6734 l 3.0775,-0.7320997 c -2.5284,2.2640997 -1.6308,0.6022997 -2.7091,2.7233997 1.951,-0.4546 1.5257,-0.6948 2.1896,-1.2169 0.0687,-0.0542 0.1467,-0.1394 0.217,-0.1884 l 1.686,-0.5498 c -1.1086,-0.9723997 -0.6576,-0.3944 -0.0489,-2.7391997 -0.1021,0.0592 -0.2149,0.1604 -0.2894,0.2052 l -1.5395,0.6519 c -1.9411,0.4321 -0.2801,-0.9419 -1.9864,0.7191 -0.0848,-0.1148 -0.1619,-0.2744 -0.2378,-0.3564 -0.0697,-0.0753 -0.1633,-0.2247 -0.2469,-0.3049 z" />
    <g
       transform="translate(-99.185212,894.95432)"
       id="g74"
       style="fill:#337ab7;fill-opacity:1">
      <g
         id="g8"
         style="fill:#337ab7;fill-opacity:1">
        <path
           inkscape:connector-curvature="0"
           id="path4"
           style="fill:#337ab7;fill-rule:evenodd;fill-opacity:1"
           d="m 374.6193,93.9738 c 1.0814,-1.8547 -0.5162,-2.6587 1.7321,-8.3939 0.7074,-1.8049 3.0989,-5.3282 2.8895,-7.1939 -2.733,-2.211 -8.511,-3.2353 -12.996,-2.9876 -10.7689,0.5945 -13.5868,6.0995 -17.647,14.4377 l -5.0077,11.0655 C 343.1625,100.4823 331.9225,82.3249 331.7836,81.631 l 8.2779,0.0093 -0.003,-4.7513 -35.5115,-0.0903 0.003,4.7685 7.4679,0.0261 c 0.9358,1.3202 1.8411,3.14 2.7408,4.6793 5.2237,8.9365 11.3861,19.1242 16.3245,27.988 0.6023,1.0808 0.9821,1.1605 0.409,2.3721 l -10.7592,22.2105 c -3.4233,6.9683 -6.7769,12.7064 -16.5888,12.9106 l -0.025,4.7907 27.6954,0.0331 0.0202,-4.6791 c -3.7996,-0.2276 -8.8759,0.9291 -7.9431,-4.1687 0.5319,-2.9076 2.0795,-6.9242 3.1201,-9.3878 1.2536,-2.9666 2.6869,-5.5582 4.2095,-8.3312 l 4.1864,-8.1406 c 0.34,0.2678 0.0806,-0.035 0.5003,0.4963 0.3003,0.3802 0.0169,-0.001 0.2651,0.4137 l 16.8915,29.0927 -10.7128,-0.0109 -0.0221,4.7756 40.7117,0.0889 -0.0495,-4.7819 -9.6083,-0.0878 -10.9078,-18.6862 c -3.2227,-5.9447 -7.4392,-12.7026 -10.8329,-18.7785 -4.1899,-7.5017 -4.8442,-6.0415 -2.9981,-9.7638 1.6351,-3.297 3.3223,-6.5707 5.1479,-9.5687 2.0018,-3.2869 4.2681,-5.4901 9.8518,-4.8468 6.2508,0.7206 4.9036,4.224 10.9747,3.761 z" />
        <path
           inkscape:connector-curvature="0"
           id="path6"
           style="fill:#337ab7;fill-rule:evenodd;fill-opacity:1"
           d="m 329.5779,147.3335 c 0.0154,0.0266 0.0291,0.0751 0.0364,0.0847 0.007,0.01 0.0414,0.0682 0.0513,0.08 0.4979,0.5892 0.3716,-0.2515 0.3157,2.1276 l -0.9651,0.2112 -0.2653,-0.7048 -0.3155,1.0058 c 0.3656,1.0653 -0.0483,0.7593 0.7952,1.8555 0.5004,-0.4253 0.4257,-0.7934 0.5202,-1.0946 0.0336,-0.0161 0.0957,3e-4 0.1115,6e-4 l 0.4294,0.01 c 0.3582,-0.1601 0.1055,-0.5152 0.1427,-1.0652 l 0.1052,-0.5428 c 0.1085,-0.7431 0.1428,-2.2016 -0.9617,-1.9676 z" />
      </g>
      <path
         inkscape:connector-curvature="0"
         id="path10"
         style="fill:#337ab7;fill-rule:evenodd;fill-opacity:1"
         d="m 405.2553,142.1598 0.005,3.062 0.0225,9.3339 -3.1634,0.0106 -0.0401,1.9554 14.2626,-0.0293 -0.018,-1.95 -3.8389,-0.009 -0.0594,-28.6149 3.8413,-0.0283 -0.0128,-1.9497 -14.178,0.033 -0.0588,1.9529 3.1841,-0.0113 c 0.0918,0.9823 0.0232,2.339 0.031,3.372 0.0141,1.8714 -10e-5,1.5512 -0.8959,2.6593 -1.0495,1.2987 -2.0427,2.498 -3.0802,3.809 -1.0192,1.2883 -2.0524,2.5181 -3.0901,3.7996 -0.545,0.6734 -0.9866,1.2119 -1.5121,1.8734 -0.4084,0.5142 -1.1682,1.5699 -1.6378,1.9049 l -0.049,-17.3973 3.1836,-0.006 -10e-4,-1.9238 -14.2408,0.004 0.004,1.9559 3.8282,-0.008 0.079,28.6016 -3.8147,0.044 -0.0409,1.9578 14.2561,-0.0354 -0.0124,-1.9433 -3.1949,3e-4 c 0.016,-2.4473 -0.1376,-5.2447 -0.012,-7.6372 0.0447,-0.8524 1.8096,-2.6318 2.4092,-3.3652 0.3282,-0.4014 0.585,-0.6722 0.9017,-1.0771 1.1262,-1.4395 2.2567,-2.7876 3.3873,-4.2055 l 3.5184,-4.2072 z" />
      <path
         inkscape:connector-curvature="0"
         id="path12"
         style="fill:#337ab7;fill-rule:evenodd;fill-opacity:1"
         d="m 425.6773,125.7445 3.2813,4e-4 c 0.6047,1.0962 -0.0337,3.2006 -0.4562,4.2514 -0.4452,1.1073 -1.3067,2.4254 -1.9163,3.3422 -0.3445,0.5182 -0.7283,0.9849 -1.0699,1.5014 -2.363,3.5729 -5.4735,6.7147 -7.1242,11.0961 -0.8902,2.3626 -1.6564,6.1488 -1.1175,8.9322 0.3837,1.9824 1.7876,1.2713 3.631,1.2585 1.3243,-0.009 3.8306,0.59 4.5175,-0.2542 0.7467,-0.9177 -0.2976,-7.8159 -0.3703,-9.4286 -0.2015,-4.4728 1.0215,-8.7173 3.1626,-12.3721 0.5616,-0.9585 1.3069,-2.4902 1.9736,-3.2624 0.2707,0.3672 2.475,11.1587 2.5507,11.5196 0.5717,2.7217 2.1768,9.4614 2.4864,11.6052 l -2.3712,1e-4 8e-4,1.9116 13.3678,0.004 -0.003,-1.9303 -2.4062,0.0147 4.4461,-23.9715 5.1981,23.9495 -2.0078,0.0144 0.003,1.9144 12.2681,0.003 -0.01,-1.8806 -3.0997,-0.0381 -6.1892,-28.1837 2.9426,0.007 0.0351,-1.9192 -12.326,-0.006 0.002,1.9088 2.0146,0.005 -5.0593,26.7323 -5.8326,-26.7305 2.5294,0.001 0.0358,-1.92 -13.0945,0.003 z" />
      <path
         inkscape:connector-curvature="0"
         id="path14"
         style="fill:#337ab7;fill-rule:evenodd;fill-opacity:1"
         d="m 475.592,80.9692 0.0118,69.9292 -9.453,0.0218 3e-4,4.7636 c 4.2244,0.0764 34.8049,0.2854 36.5594,-0.1314 l -0.0158,-4.5019 -9.4549,-0.1606 0.008,-69.8418 c 3.6904,-0.5399 10.7665,-0.3121 13.58,2.0332 7.1394,5.9515 4.7189,22.2441 11.202,19.9389 2.8245,-1.0044 1.364,-5.9795 3.4143,-12.4791 0.6405,-2.0302 1.3198,-3.7526 2.1027,-5.6177 0.666,-1.5869 1.9857,-3.9991 2.0937,-5.8054 0.1352,-2.2601 -1.5437,-3.9855 -3.4465,-4.3808 -2.1885,-0.455 -4.9707,0.524 -7.059,0.8659 -6.4755,1.0601 -23.0182,0.5238 -30.6145,0.5819 -5.2201,0.0399 -10.4716,0.0432 -15.6923,0.009 -5.4082,-0.0353 -9.5444,0.2979 -14.948,-0.5766 -2.0536,-0.3323 -4.7486,-1.2314 -6.8384,-0.9408 -2.0742,0.2883 -3.8362,1.8902 -3.8852,4.0391 -0.072,3.1497 4.6862,9.3151 5.3966,18.1898 0.1654,2.0646 0.007,5.143 1.8565,6.0096 4.3864,2.0561 4.8759,-4.2016 6.2267,-9.0282 3.8021,-13.5852 5.978,-13.32 18.9555,-12.9177 z" />
      <g
         id="g22"
         style="fill:#337ab7;fill-opacity:1">
        <path
           inkscape:connector-curvature="0"
           id="path16"
           style="fill:#337ab7;fill-rule:evenodd;fill-opacity:1"
           d="m 513.8591,137.9374 0.2893,0.4286 0.3838,0.8082 c -0.1937,0.2488 0.2901,0.1222 -0.3814,0.1871 -0.006,7e-4 -0.3455,-0.0148 -0.3874,-0.0158 -0.2958,-0.007 -0.5194,-0.0151 -0.8097,0.0407 l -0.0287,1.8291 11.1013,-0.008 0.0134,-1.864 -1.8097,-0.0114 c -0.7571,-1.2249 -0.6342,-1.9121 -2.5804,-3.3859 -3.2797,-2.4835 -7.795,-2.2648 -11.3674,-0.259 -0.6778,0.3805 -1.164,0.9046 -1.7427,1.2351 -0.1152,-2.6287 -0.1992,-4.2845 0.508,-6.7675 0.5474,-1.9223 1.5876,-3.624 2.8784,-4.45 1.6073,-1.0284 4.164,-1.1143 5.9162,-0.1448 1.1951,0.6613 2.7323,2.6099 2.8581,4.4902 l -1.3344,0.009 -0.0112,1.8689 c 1.3387,0.0224 10.4881,0.1048 11.1027,-0.0436 l 2e-4,-1.817 -2.1368,-0.0352 c -0.2946,-0.4746 -0.5066,-1.0504 -0.8129,-1.5799 -0.2987,-0.5166 -0.5559,-0.8932 -0.9532,-1.3261 -4.3913,-4.7844 -11.8013,-4.923 -17.7124,-2.7905 -2.5075,0.9045 -4.0121,2.3389 -5.3412,3.8874 -1.367,1.5928 -2.3634,3.8606 -2.7452,6.5874 -0.7989,5.7061 0.8815,8.098 3.942,12.0178 2.2485,2.8799 3.6601,4.0009 3.3729,7.9835 1.8374,0.6079 4.5477,0.8049 6.6461,0.8449 3.4259,0.0653 5.94,-0.8866 8.539,-2.6875 0.3491,-0.242 0.7835,-0.585 1.0599,-0.8473 1.1181,-1.0611 1.156,-0.9138 2.3356,-2.3279 0.8203,-0.9836 1.2678,-1.8724 1.8474,-2.6911 l 1.6255,-0.0532 0.0103,-1.8269 -11.7298,-0.005 0.0473,1.8409 2.1826,7e-4 c -0.2614,1.7819 -1.7292,4.2773 -3.207,5.3145 -1.7497,1.228 -5.3128,1.9512 -6.7173,1.0946 0.2054,-1.5777 0.5607,-1.1649 0.3617,-3.9714 -0.222,-3.131 -2.6969,-9.8249 -2.3542,-10.7999 0.7397,-0.8536 1.8637,-1.5177 3.3844,-1.8645 0.6949,-0.1585 1.6788,-0.2922 2.3351,-0.0488 0.5,0.1854 1.2459,0.7502 1.4218,1.1534 z" />
        <path
           inkscape:connector-curvature="0"
           id="path18"
           style="fill:#337ab7;fill-rule:evenodd;fill-opacity:1"
           d="m 514.5322,139.1742 -0.3838,-0.8082 c -0.4311,-0.2217 -0.2319,-0.151 -0.4047,0.3083 -0.0747,0.1989 -0.2032,0.3468 -0.2995,0.5054 0.0147,0.006 0.0499,0.1635 0.3698,0.0591 0.0521,-0.0171 0.2867,-0.2156 0.3298,-0.2511 0.1113,0.1703 0.015,0.2168 0,0.2855 z" />
        <path
           inkscape:connector-curvature="0"
           id="path20"
           style="fill:#337ab7;fill-rule:evenodd;fill-opacity:1"
           d="m 512.9537,139.3862 c 0.2903,-0.0558 0.5139,-0.0478 0.8097,-0.0407 0.0419,0.001 0.3809,0.0165 0.3874,0.0158 0.6715,-0.0649 0.1877,0.0617 0.3814,-0.1871 l -0.3884,0.099 c 0.015,-0.0687 0.1113,-0.1152 0,-0.2855 -0.0431,0.0355 -0.2777,0.234 -0.3298,0.2511 -0.3199,0.1044 -0.3551,-0.053 -0.3698,-0.0591 0.0963,-0.1586 0.2248,-0.3065 0.2995,-0.5054 0.1728,-0.4593 -0.0264,-0.53 0.4047,-0.3083 l -0.2893,-0.4286 c -0.0324,0.2685 -0.1329,0.5472 -0.2822,0.8565 -0.1902,0.3942 -0.224,0.4106 -0.6232,0.5923 z" />
      </g>
      <path
         inkscape:connector-curvature="0"
         id="path24"
         style="fill:#337ab7;fill-rule:evenodd;fill-opacity:1"
         d="m 540.4211,133.3298 c -0.2916,-0.2854 -0.924,-1.4323 -1.2017,-1.8898 -0.4592,-0.7569 -3.5026,-5.5005 -3.5845,-5.9088 l 3.3351,0.006 0.007,-1.9317 -14.3481,-0.002 0.006,1.9294 3.0185,5e-4 c 0.3672,0.5223 0.7334,1.2522 1.0787,1.842 l 5.5011,9.417 c 0.3397,0.5834 0.7317,1.2194 1.088,1.8468 0.5101,0.8985 0.4661,0.576 -0.2207,1.9652 -1.3074,2.6446 -2.5231,5.3317 -3.844,8.0578 -0.6472,1.3357 -1.431,2.8103 -2.3332,3.6244 -1.8288,1.6504 -2.3319,1.3563 -4.3714,1.7188 l -0.0217,1.9026 11.19,0.002 -0.002,-1.9096 c -2.9981,-0.1736 -4.4615,0.6756 -1.9814,-5.4245 0.5582,-1.3728 1.7692,-3.5737 2.5374,-5.0175 0.2342,-0.4402 0.7189,-1.2948 0.8632,-1.7262 0.3058,0.2404 0.689,1.0547 0.9591,1.4906 l 6.1996,10.6508 -4.3016,-0.005 -0.0337,1.9472 16.4463,-0.007 -0.0151,-1.9427 -3.891,-0.003 c -0.378,-0.4872 -0.7619,-1.3082 -1.0845,-1.8542 -0.3975,-0.6728 -0.714,-1.2139 -1.1175,-1.9038 -0.7481,-1.2797 -1.4817,-2.4752 -2.1893,-3.7636 -1.6143,-2.939 -3.7312,-6.4288 -5.4759,-9.4435 -0.6185,-1.0685 -0.8056,-0.8733 -0.2265,-2.0458 0.6642,-1.3448 1.3313,-2.6791 2.0957,-3.9439 0.8057,-1.3332 1.6553,-2.2589 3.9204,-2.0374 0.9386,0.0917 1.5577,0.4001 2.1988,0.8246 0.9212,0.6102 0.8874,0.8109 2.3224,0.6977 0.4348,-0.7524 -0.211,-1.0766 0.6914,-3.4021 0.2839,-0.7319 1.2463,-2.1616 1.1599,-2.9172 -0.3788,-0.6894 -6.4404,-2.6482 -9.8712,0.5896 -1.4433,1.3623 -2.5554,4.3205 -3.4711,6.2924 -0.3579,0.7708 -0.721,1.4772 -1.0321,2.2736 z" />
      <path
         inkscape:connector-curvature="0"
         id="path26"
         style="fill:#337ab7;fill-rule:evenodd;fill-opacity:1"
         d="m 590.3269,155.2432 -0.006,-1.9743 -0.6205,0.0197 -1.7394,0.003 -1.5169,-0.01 -0.0838,-28.8246 3.8751,-0.0218 -0.006,-1.9564 c -1.7029,-0.009 -13.6932,-0.0766 -14.3729,0.0951 l 10e-4,1.907 3.2414,-0.002 0.0157,17.5615 c -0.5661,-0.6326 -1.046,-1.2167 -1.6106,-1.9171 -2.0982,-2.6028 -5.019,-6.0049 -7.0399,-8.609 -1.5908,-2.0496 -1.6806,-1.3214 -1.6979,-3.5292 -0.009,-1.1577 -0.0249,-2.3199 -0.01,-3.4791 l 3.216,-0.0158 6e-4,-1.962 -14.3692,0.0432 0.007,1.9728 3.894,-0.0223 0.0638,28.8355 -3.8709,0.0267 0.0643,1.9605 14.3045,-0.0411 -0.007,-1.9729 -3.2184,0.0158 -0.0564,-20.6837 c 0.6236,0.5823 1.2065,1.4102 1.804,2.1116 l 2.62,3.2138 c 0.2752,0.3677 0.5823,0.7397 0.8716,1.0695 l 3.5119,4.2637 c 0.6502,0.7898 1.5536,1.6195 1.5764,2.3207 0.0795,2.4392 0.0597,5.2282 0.009,7.6704 l -3.2316,0.0465 0.0155,1.8746 c 0.6876,0.171 12.654,0.0364 14.3645,0.009 z" />
      <g
         id="g32"
         style="fill:#337ab7;fill-opacity:1">
        <path
           inkscape:connector-curvature="0"
           id="path28"
           style="fill:#337ab7;fill-rule:evenodd;fill-opacity:1"
           d="m 599.0355,129.5791 c 0.6503,0.9422 0.2952,0.7365 1.4113,2.1757 0.1599,0.2063 0.3945,0.4651 0.5611,0.636 l 1.7621,1.8161 c 0.2438,0.224 0.3466,0.398 0.5752,0.6233 1.3719,1.3523 3.3662,3.4632 4.6621,4.9795 1.4813,1.7334 2.9297,4.0334 1.7301,6.9446 -0.4107,0.9965 -1.417,2.248 -2.0078,2.7404 -0.4471,0.3726 -0.7508,0.7163 -1.2983,1.0914 -0.3838,0.2628 -1.1099,0.743 -1.6351,0.8713 -0.2892,-0.665 -0.2059,-1.0073 -0.6499,-1.6933 -0.3661,-0.5655 -0.6878,-0.8428 -1.104,-1.2881 -1.1198,-1.1979 -2.5067,-2.3451 -3.6584,-3.4944 -0.4273,-0.4265 -0.7132,-0.7659 -1.1856,-1.2025 l -2.2345,-2.5538 c -1.3007,-1.7653 -2.7472,-4.1855 -1.8406,-7.0191 0.6922,-2.1635 2.6959,-4.5542 4.9123,-4.6271 z m -9.348,12.4013 c 0.009,2.0698 0.948,4.2871 1.816,5.7859 0.7223,1.2473 1.6372,2.1521 2.5367,3.1091 0.6289,0.6691 4.2074,3.6009 5.1906,4.3248 2.2094,1.6268 3.0918,2.9372 4.7193,1.5645 0.7138,-0.6019 1.2552,-1.2416 1.8795,-1.8697 1.3828,-1.3911 4.4807,-4.6 5.5335,-5.8782 2.4236,-2.9426 3.3633,-6.0554 3.122,-9.9152 -0.0352,-0.5631 -0.2656,-1.2358 -0.1744,-1.7623 l -0.2495,-0.7463 c -0.525,-1.7963 -0.9997,-2.6126 -2.174,-4.1136 l -0.6323,-0.7333 c -0.9968,-1.0227 -1.7696,-1.8955 -2.9506,-2.8423 -1.1101,-0.8901 -2.8845,-2.3297 -3.8497,-3.2935 -0.321,-0.3205 -0.56,-0.5115 -0.9357,-0.8488 -0.6444,-0.5787 -1.4339,-2.1888 -3.3022,-0.5336 -0.707,0.6263 -0.9989,1.0187 -1.8463,1.7388 -1.9317,1.6413 -3.7501,3.338 -5.2513,5.398 -2.0499,2.8129 -3.6769,5.9162 -3.4316,10.6157 z" />
        <path
           inkscape:connector-curvature="0"
           id="path30"
           style="fill:#337ab7;fill-rule:evenodd;fill-opacity:1"
           d="m 605.6731,142.7242 -0.2924,0.2166 c 0.234,0.0905 0.1675,0.003 0.296,0.2922 -0.667,-0.0911 -0.2239,0.0225 -0.6551,-0.316 0.0646,1.2063 -0.1407,0.4263 0.097,1.1908 0.0681,0.2193 0.0227,0.181 0.1301,0.4215 -0.0803,0.1345 -0.174,0.1844 -0.2794,0.2652 0.0193,0.0157 0.0517,0.007 0.0633,0.0398 l 0.3417,0.287 c 0.0143,0.0146 0.0344,0.0401 0.052,0.0598 l 0.145,-0.3369 c 0.2115,0.0329 0.1546,-6e-4 0.3752,0.2578 l 0.2032,-0.4454 c 0.009,-0.0198 0.0203,-0.0504 0.035,-0.073 0.1786,0.291 0.0172,0.3772 0.0243,0.7108 0.0123,-0.0206 0.095,-0.1953 0.1078,-0.2302 0.1255,-0.3422 0.0278,-0.2495 0.2414,-0.6232 -0.5082,0.0661 -0.1621,-0.1808 -0.6178,-0.0468 -0.0285,0.008 -0.1592,0.0701 -0.1849,0.0822 l 0.2452,-0.4792 -0.2517,-0.0675 c 0.2653,-0.3757 0.1751,-0.625 0.008,-1.0713 -0.007,-0.0191 -0.0171,-0.042 -0.0237,-0.0597 l -0.1552,-0.9066 c -0.0425,0.4546 -0.0907,0.4195 0.0946,0.8321 z" />
      </g>
      <g
         id="g38"
         style="fill:#337ab7;fill-opacity:1">
        <path
           inkscape:connector-curvature="0"
           id="path34"
           style="fill:#337ab7;fill-rule:evenodd;fill-opacity:1"
           d="m 641.1562,155.8954 -0.014,-1.4277 -3.4102,-0.009 c -0.3898,-2.1619 -1.3227,-4.7219 -1.9193,-6.874 -1.3692,-4.9391 -4.3142,-17.1554 -4.6222,-21.9042 l 2.8157,-0.009 -0.002,-1.9598 -9.0262,-0.004 -6.3786,0.0266 5e-4,1.8991 c 1.8406,0.3552 4.5724,-0.6184 4.7944,0.9096 0.2645,1.8216 -2.3637,6.3037 -3.2634,7.944 -0.6707,1.2224 -1.2328,2.4144 -1.9115,3.6937 -2.4837,4.6803 -6.0864,11.3957 -5.5908,16.9738 0.1822,2.049 2.3679,1.558 4.1273,1.5623 1.449,0.004 4.2419,0.8303 4.4391,-0.8192 0.1361,-1.1389 -0.002,-4.5407 -0.8085,-4.9012 -0.8972,-0.401 -1.219,0.3529 -1.534,-1.2757 -0.7645,-3.9533 0.4034,-8.5021 1.9275,-11.7791 0.6149,-1.322 2.8306,-5.8595 3.9734,-6.9723 0.099,-0.0964 0.0554,-0.0586 0.1615,-0.1374 0.4761,1.3186 0.9363,4.5042 1.2142,6.0803 0.6425,3.6421 1.7056,8.3732 2.6535,11.9128 l 1.6415,5.6344 -2.993,0.0167 7e-4,1.9555 13.7076,-0.002 z" />
        <path
           inkscape:connector-curvature="0"
           id="path36"
           style="fill:#337ab7;fill-rule:evenodd;fill-opacity:1"
           d="m 622.1771,142.1448 c 0.029,-0.008 0.0832,-0.147 0.0801,-0.1605 -0.0454,-0.2026 0.2791,0.007 -0.8029,-0.1113 -0.105,0.3731 -0.0564,0.4975 -0.3673,0.5998 -0.0137,0.004 -0.0427,0.003 -0.056,0.007 -0.0124,0.003 -0.0404,0.002 -0.0523,0.005 l -0.1329,0.0489 c -0.01,0.007 -0.0285,0.0275 -0.0382,0.0366 -0.0107,0.0101 -0.0267,0.0336 -0.0376,0.0454 l -0.2234,0.254 c -0.2264,0.219 -0.1894,0.011 -0.2669,0.3609 0.553,-0.0181 1.0403,-0.1921 1.175,-0.4524 0.3892,0.1489 0.0311,0.0295 0.2626,0.1382 0.0135,0.006 0.0373,0.0168 0.05,0.0224 0.0115,0.005 0.0359,0.0126 0.0467,0.0174 0.1831,0.0796 0.2428,-0.0738 0.2728,0.3648 l 0.208,-0.3124 c 0.0188,-0.0116 0.0845,-0.0248 0.1602,-0.0552 0.3291,-0.1322 -0.1671,0.316 0.174,-0.0842 -0.2268,-0.2216 -0.0731,-0.119 -0.2711,-5e-4 0.1419,-0.7152 -0.05,-0.4284 -0.1808,-0.7233 z" />
      </g>
      <g
         id="g44"
         style="fill:#337ab7;fill-opacity:1">
        <path
           inkscape:connector-curvature="0"
           id="path40"
           style="fill:#337ab7;fill-rule:evenodd;fill-opacity:1"
           d="m 644.6406,129.2533 c 0.6503,0.9422 0.2951,0.7365 1.4112,2.1757 0.16,0.2063 0.3945,0.4651 0.5611,0.636 l 1.7622,1.816 c 0.2437,0.2241 0.3465,0.3981 0.5751,0.6234 1.3719,1.3523 3.3663,3.4632 4.6621,4.9795 1.4813,1.7334 2.9297,4.0334 1.7301,6.9446 -0.4106,0.9964 -1.4169,2.248 -2.0077,2.7404 -0.4471,0.3725 -0.7508,0.7163 -1.2984,1.0914 -0.3837,0.2628 -1.1098,0.743 -1.6351,0.8713 -0.2891,-0.665 -0.2058,-1.0073 -0.6499,-1.6933 -0.366,-0.5656 -0.6878,-0.8429 -1.1039,-1.2881 -1.1198,-1.1979 -2.5068,-2.3451 -3.6585,-3.4944 -0.4273,-0.4265 -0.7132,-0.766 -1.1856,-1.2026 l -2.2345,-2.5537 c -1.3006,-1.7653 -2.7472,-4.1855 -1.8405,-7.0191 0.6922,-2.1635 2.6958,-4.5542 4.9123,-4.6271 z m -9.348,12.4013 c 0.009,2.0698 0.948,4.2871 1.816,5.7859 0.7223,1.2473 1.6372,2.1521 2.5366,3.1091 0.6289,0.6691 4.2075,3.6009 5.1906,4.3248 2.2095,1.6268 3.0918,2.9371 4.7194,1.5645 0.7138,-0.602 1.2552,-1.2416 1.8795,-1.8697 1.3828,-1.3911 4.4807,-4.6001 5.5334,-5.8782 2.4237,-2.9427 3.3634,-6.0554 3.122,-9.9153 -0.0352,-0.5631 -0.2655,-1.2357 -0.1744,-1.7623 l -0.2495,-0.7463 c -0.525,-1.7962 -0.9996,-2.6125 -2.174,-4.1136 l -0.6323,-0.7333 c -0.9968,-1.0226 -1.7695,-1.8954 -2.9506,-2.8423 -1.11,-0.89 -2.8845,-2.3296 -3.8497,-3.2935 -0.3209,-0.3204 -0.5599,-0.5114 -0.9357,-0.8488 -0.6443,-0.5786 -1.4338,-2.1887 -3.3021,-0.5336 -0.707,0.6263 -0.9989,1.0188 -1.8464,1.7389 -1.9316,1.6413 -3.7501,3.338 -5.2512,5.398 -2.0499,2.8129 -3.6769,5.9162 -3.4316,10.6157 z" />
        <path
           inkscape:connector-curvature="0"
           id="path42"
           style="fill:#337ab7;fill-rule:evenodd;fill-opacity:1"
           d="m 651.2781,142.3984 -0.2924,0.2166 c 0.234,0.0904 0.1675,0.003 0.2961,0.2922 -0.6671,-0.0911 -0.2239,0.0225 -0.6552,-0.316 0.0646,1.2063 -0.1406,0.4263 0.097,1.1908 0.0682,0.2193 0.0228,0.181 0.1301,0.4215 -0.0802,0.1345 -0.174,0.1844 -0.2794,0.2652 0.0194,0.0157 0.0517,0.007 0.0634,0.0398 l 0.3417,0.287 c 0.0142,0.0146 0.0343,0.0401 0.0519,0.0598 l 0.1451,-0.3369 c 0.2115,0.0329 0.1546,-6e-4 0.3751,0.2578 l 0.2032,-0.4454 c 0.009,-0.0199 0.0203,-0.0504 0.0351,-0.073 0.1786,0.291 0.0171,0.3772 0.0242,0.7108 0.0124,-0.0207 0.0951,-0.1953 0.1079,-0.2302 0.1255,-0.3422 0.0277,-0.2495 0.2413,-0.6233 -0.5082,0.0662 -0.162,-0.1807 -0.6177,-0.0467 -0.0285,0.008 -0.1593,0.0701 -0.1849,0.0821 l 0.2452,-0.4792 -0.2518,-0.0675 c 0.2653,-0.3757 0.1752,-0.6249 0.008,-1.0713 -0.007,-0.019 -0.0171,-0.042 -0.0237,-0.0597 l -0.1552,-0.9065 c -0.0426,0.4546 -0.0908,0.4195 0.0945,0.8321 z" />
      </g>
      <g
         id="g50"
         style="fill:#337ab7;fill-opacity:1">
        <path
           inkscape:connector-curvature="0"
           id="path46"
           style="fill:#337ab7;fill-rule:evenodd;fill-opacity:1"
           d="m 177.9687,93.2076 c 1.4724,2.1333 0.6683,1.6677 3.1954,4.9264 0.3622,0.467 0.8932,1.053 1.2705,1.4399 l 3.9899,4.112 c 0.5518,0.5073 0.7846,0.9013 1.3022,1.4114 3.1063,3.0619 7.622,7.8415 10.556,11.2747 3.3541,3.9249 6.6336,9.1326 3.9173,15.7241 -0.9298,2.2563 -3.2082,5.09 -4.5459,6.2049 -1.0123,0.8436 -1.7,1.6219 -2.9398,2.4712 -0.8689,0.5951 -2.5129,1.6823 -3.7022,1.9729 -0.6547,-1.5057 -0.4661,-2.2808 -1.4715,-3.8342 -0.8288,-1.2804 -1.5573,-1.9083 -2.4996,-2.9164 -2.5355,-2.7124 -5.6758,-5.3098 -8.2835,-7.9122 -0.9675,-0.9656 -1.6149,-1.7342 -2.6845,-2.7228 l -5.0595,-5.7822 c -2.9449,-3.9971 -6.2202,-9.4769 -4.1673,-15.8929 1.5672,-4.8986 6.1039,-10.3116 11.1225,-10.4768 z m -21.166,28.0794 c 0.0202,4.6865 2.1465,9.7069 4.1118,13.1005 1.6355,2.8242 3.707,4.8728 5.7436,7.0398 1.4239,1.515 9.5266,8.1531 11.7527,9.7922 5.0027,3.6836 7.0005,6.6504 10.6856,3.5425 1.6162,-1.363 2.8421,-2.8114 4.2557,-4.2335 3.1309,-3.1498 10.1453,-10.4155 12.5289,-13.3095 5.4878,-6.6629 7.6154,-13.7109 7.0689,-22.4504 -0.0797,-1.275 -0.6012,-2.798 -0.3948,-3.9902 l -0.565,-1.6898 c -1.1887,-4.0672 -2.2634,-5.9155 -4.9224,-9.3141 l -1.4316,-1.6604 c -2.257,-2.3156 -4.0068,-4.2917 -6.6809,-6.4356 -2.5134,-2.0152 -6.5312,-5.2749 -8.7166,-7.4572 -0.7266,-0.7256 -1.2678,-1.1581 -2.1185,-1.9219 -1.459,-1.3101 -3.2467,-4.9557 -7.4769,-1.2082 -1.6008,1.4181 -2.2617,2.3067 -4.1806,3.9372 -4.3736,3.7162 -8.491,7.5579 -11.8899,12.2223 -4.6415,6.3691 -8.3254,13.3955 -7.77,24.0363 z" />
        <path
           inkscape:connector-curvature="0"
           id="path48"
           style="fill:#337ab7;fill-rule:evenodd;fill-opacity:1"
           d="m 192.9976,122.9711 -0.662,0.4904 c 0.5298,0.2048 0.3792,0.008 0.6703,0.6616 -1.5103,-0.2062 -0.507,0.0509 -1.4834,-0.7154 0.1463,2.7313 -0.3185,0.9652 0.2196,2.6961 0.1543,0.4967 0.0515,0.41 0.2946,0.9545 -0.1817,0.3044 -0.394,0.4175 -0.6327,0.6004 0.0439,0.0356 0.1171,0.016 0.1435,0.0901 l 0.7737,0.6499 c 0.0322,0.033 0.0778,0.0908 0.1176,0.1353 l 0.3285,-0.7627 c 0.4788,0.0744 0.35,-10e-4 0.8494,0.5837 l 0.46,-1.0084 c 0.0209,-0.045 0.046,-0.1142 0.0794,-0.1654 0.4044,0.6588 0.0388,0.8541 0.0549,1.6095 0.028,-0.0468 0.2152,-0.4422 0.2442,-0.5213 0.2842,-0.7748 0.0628,-0.5649 0.5465,-1.4112 -1.1507,0.1498 -0.367,-0.4092 -1.3988,-0.1059 -0.0645,0.019 -0.3605,0.1587 -0.4186,0.1861 l 0.5552,-1.085 -0.57,-0.1529 c 0.6006,-0.8507 0.3965,-1.415 0.0191,-2.4257 -0.0162,-0.0431 -0.0387,-0.095 -0.0537,-0.1351 l -0.3514,-2.0526 c -0.0963,1.0292 -0.2055,0.9498 0.2141,1.884 z" />
      </g>
      <g
         id="g56"
         style="fill:#337ab7;fill-opacity:1">
        <path
           inkscape:connector-curvature="0"
           id="path52"
           style="fill:#337ab7;fill-rule:evenodd;fill-opacity:1"
           d="m 237.1017,94.1037 c 1.4724,2.1334 0.6683,1.6677 3.1954,4.9264 0.3622,0.4671 0.8932,1.053 1.2705,1.4399 l 3.9899,4.1121 c 0.5518,0.5072 0.7846,0.9013 1.3022,1.4113 3.1063,3.0619 7.622,7.8416 10.556,11.2748 3.3541,3.9248 6.6336,9.1326 3.9173,15.724 -0.9298,2.2563 -3.2082,5.09 -4.5459,6.2049 -1.0123,0.8436 -1.7,1.622 -2.9398,2.4712 -0.8689,0.5951 -2.5129,1.6823 -3.7022,1.9729 -0.6547,-1.5057 -0.4661,-2.2807 -1.4715,-3.8341 -0.8288,-1.2805 -1.5573,-1.9083 -2.4996,-2.9165 -2.5355,-2.7123 -5.6758,-5.3098 -8.2836,-7.9122 -0.9674,-0.9655 -1.6148,-1.7342 -2.6844,-2.7227 l -5.0595,-5.7823 c -2.9449,-3.9971 -6.2202,-9.4769 -4.1673,-15.8928 1.5672,-4.8986 6.1039,-10.3117 11.1225,-10.4769 z m -21.166,28.0794 c 0.0202,4.6865 2.1465,9.7069 4.1118,13.1006 1.6355,2.8241 3.707,4.8728 5.7436,7.0397 1.4239,1.515 9.5266,8.1531 11.7527,9.7922 5.0027,3.6836 7.0005,6.6505 10.6856,3.5425 1.6162,-1.363 2.8421,-2.8113 4.2557,-4.2335 3.1309,-3.1498 10.1453,-10.4155 12.5289,-13.3095 5.4878,-6.6628 7.6154,-13.7108 7.0689,-22.4504 -0.0797,-1.2749 -0.6012,-2.798 -0.3948,-3.9902 l -0.565,-1.6898 c -1.1887,-4.0672 -2.2634,-5.9154 -4.9224,-9.3141 l -1.4316,-1.6604 c -2.257,-2.3155 -4.0068,-4.2917 -6.6809,-6.4356 -2.5134,-2.0152 -6.5312,-5.2748 -8.7166,-7.4572 -0.7266,-0.7256 -1.2679,-1.158 -2.1185,-1.9218 -1.459,-1.3102 -3.2467,-4.9558 -7.4769,-1.2083 -1.6008,1.4182 -2.2617,2.3067 -4.1806,3.9372 -4.3736,3.7162 -8.491,7.558 -11.8899,12.2223 -4.6415,6.3691 -8.3254,13.3955 -7.77,24.0363 z" />
        <path
           inkscape:connector-curvature="0"
           id="path54"
           style="fill:#337ab7;fill-rule:evenodd;fill-opacity:1"
           d="m 252.1306,123.8673 -0.6621,0.4904 c 0.5299,0.2048 0.3793,0.008 0.6704,0.6615 -1.5103,-0.2062 -0.507,0.051 -1.4834,-0.7153 0.1463,2.7312 -0.3185,0.9651 0.2196,2.6961 0.1543,0.4966 0.0515,0.4099 0.2946,0.9544 -0.1817,0.3044 -0.394,0.4175 -0.6327,0.6005 0.0439,0.0356 0.1171,0.016 0.1435,0.09 l 0.7737,0.65 c 0.0322,0.0329 0.0778,0.0908 0.1176,0.1353 l 0.3285,-0.7628 c 0.4788,0.0745 0.35,-10e-4 0.8494,0.5837 l 0.46,-1.0084 c 0.0209,-0.045 0.0459,-0.1141 0.0794,-0.1653 0.4044,0.6588 0.0388,0.8541 0.0549,1.6094 0.028,-0.0468 0.2152,-0.4422 0.2442,-0.5212 0.2842,-0.7749 0.0628,-0.5649 0.5465,-1.4113 -1.1507,0.1498 -0.367,-0.4092 -1.3988,-0.1058 -0.0645,0.0189 -0.3605,0.1587 -0.4186,0.186 l 0.5551,-1.085 -0.5699,-0.1528 c 0.6006,-0.8507 0.3965,-1.4151 0.0191,-2.4257 -0.0162,-0.0431 -0.0387,-0.0951 -0.0537,-0.1352 l -0.3514,-2.0525 c -0.0963,1.0291 -0.2055,0.9498 0.2141,1.884 z" />
      </g>
      <g
         id="g62"
         style="fill:#337ab7;fill-opacity:1">
        <path
           inkscape:connector-curvature="0"
           id="path58"
           style="fill:#337ab7;fill-rule:evenodd;fill-opacity:1"
           d="m 120.3766,94.1037 c 1.4724,2.1334 0.6683,1.6677 3.1954,4.9264 0.3622,0.4671 0.8932,1.053 1.2705,1.4399 l 3.9899,4.1121 c 0.5518,0.5072 0.7846,0.9013 1.3022,1.4113 3.1063,3.0619 7.622,7.8416 10.556,11.2748 3.3541,3.9248 6.6335,9.1326 3.9173,15.724 -0.9298,2.2563 -3.2082,5.09 -4.5459,6.2049 -1.0123,0.8436 -1.7001,1.622 -2.9398,2.4712 -0.8689,0.5951 -2.5129,1.6823 -3.7022,1.9729 -0.6548,-1.5057 -0.4661,-2.2807 -1.4715,-3.8341 -0.8288,-1.2805 -1.5573,-1.9083 -2.4996,-2.9165 -2.5355,-2.7123 -5.6759,-5.3098 -8.2836,-7.9122 -0.9675,-0.9655 -1.6148,-1.7342 -2.6844,-2.7227 l -5.0595,-5.7823 c -2.9449,-3.9971 -6.2203,-9.4769 -4.1674,-15.8928 1.5673,-4.8986 6.104,-10.3117 11.1226,-10.4769 z m -21.166,28.0794 c 0.0202,4.6865 2.1465,9.7069 4.1118,13.1006 1.6355,2.8241 3.707,4.8728 5.7436,7.0397 1.4239,1.515 9.5266,8.1531 11.7527,9.7922 5.0027,3.6836 7.0005,6.6505 10.6856,3.5425 1.6162,-1.363 2.8421,-2.8113 4.2557,-4.2335 3.1309,-3.1498 10.1453,-10.4155 12.5289,-13.3095 5.4877,-6.6628 7.6154,-13.7108 7.0689,-22.4504 -0.0797,-1.2749 -0.6012,-2.798 -0.3948,-3.9902 l -0.565,-1.6898 c -1.1888,-4.0672 -2.2634,-5.9154 -4.9224,-9.3141 l -1.4316,-1.6604 c -2.2571,-2.3155 -4.0068,-4.2917 -6.6809,-6.4356 -2.5134,-2.0152 -6.5312,-5.2748 -8.7166,-7.4572 -0.7266,-0.7256 -1.2679,-1.158 -2.1186,-1.9218 -1.4589,-1.3102 -3.2466,-4.9558 -7.4769,-1.2083 -1.6007,1.4182 -2.2616,2.3067 -4.1805,3.9372 -4.3736,3.7162 -8.491,7.558 -11.89,12.2223 -4.6414,6.3691 -8.3253,13.3955 -7.7699,24.0363 z" />
        <path
           inkscape:connector-curvature="0"
           id="path60"
           style="fill:#337ab7;fill-rule:evenodd;fill-opacity:1"
           d="m 135.4055,123.8673 -0.6621,0.4904 c 0.5298,0.2048 0.3793,0.008 0.6704,0.6615 -1.5103,-0.2062 -0.507,0.051 -1.4835,-0.7153 0.1464,2.7312 -0.3184,0.9651 0.2197,2.6961 0.1542,0.4966 0.0514,0.4099 0.2946,0.9544 -0.1818,0.3044 -0.394,0.4175 -0.6327,0.6005 0.0439,0.0356 0.1171,0.016 0.1435,0.09 l 0.7737,0.65 c 0.0322,0.0329 0.0777,0.0908 0.1176,0.1353 l 0.3285,-0.7628 c 0.4788,0.0745 0.3499,-10e-4 0.8494,0.5837 l 0.46,-1.0084 c 0.0209,-0.045 0.0459,-0.1141 0.0793,-0.1653 0.4044,0.6588 0.0389,0.8541 0.0549,1.6094 0.028,-0.0468 0.2153,-0.4422 0.2443,-0.5212 0.2842,-0.7749 0.0628,-0.5649 0.5465,-1.4113 -1.1507,0.1498 -0.367,-0.4092 -1.3988,-0.1058 -0.0645,0.0189 -0.3605,0.1587 -0.4186,0.186 l 0.5551,-1.085 -0.5699,-0.1528 c 0.6006,-0.8507 0.3965,-1.4151 0.0191,-2.4257 -0.0163,-0.0431 -0.0387,-0.0951 -0.0537,-0.1352 l -0.3514,-2.0525 c -0.0963,1.0291 -0.2055,0.9498 0.2141,1.884 z" />
      </g>
      <g
         id="g68"
         style="fill:#337ab7;fill-opacity:1">
        <path
           inkscape:connector-curvature="0"
           id="path64"
           style="fill:#337ab7;fill-rule:evenodd;fill-opacity:1"
           d="m 672.8153,155.2575 c -0.9517,-0.2303 -2.82,0.0441 -3.9377,-0.0836 l 0.006,-29.2118 c 0.4856,-0.1234 3.6605,-0.0704 4.3485,-0.0383 6.381,0.2979 5.2833,7.6627 7.0906,8.2085 0.632,0.1908 1.2825,-0.0223 1.5016,-0.5532 0.3327,-0.8064 0.4525,-2.7733 0.6343,-3.7658 0.4678,-2.5538 2.1185,-4.3347 1.2299,-5.9188 -0.2356,-0.42 -0.3598,-0.3107 -0.4526,-0.5039 -1.124,-0.2879 -1.9155,0.0486 -3.0531,0.1928 -3.6105,0.4572 -5.8494,0.3425 -9.4993,0.3326 -4.2871,-0.0115 -8.8322,0.1544 -13.0964,-0.01 l 0.0317,2.0102 3.9074,0.0334 -0.0226,29.2416 -3.9168,0.007 0.002,1.9871 15.2205,0.006 z" />
        <path
           inkscape:connector-curvature="0"
           id="path66"
           style="fill:#337ab7;fill-rule:evenodd;fill-opacity:1"
           d="m 675.9256,141.3273 -0.309,0.2126 0.213,0.0984 c 0.014,0.008 0.0426,0.0271 0.0639,0.0408 l 0.0205,0.7929 c -0.137,-0.0599 -0.0998,-0.008 -0.1874,-0.022 -0.4648,-0.0769 -0.2857,-0.228 -0.4781,-0.4184 -0.0811,0.512 0.0189,0.1222 -0.1377,0.3514 0.0955,0.2688 -0.1108,0.0612 0.2205,0.1759 0.0654,0.7008 0.1425,0.6307 -0.2038,0.8798 l 0.4626,0.417 0.1594,-0.3436 0.2672,0.1368 c 0.0196,0.018 0.0406,0.0492 0.0566,0.0658 0.017,0.0177 0.0334,0.0516 0.0525,0.0755 0.0161,-0.0237 0.0313,-0.0901 0.0388,-0.0767 l 0.276,-0.2945 c 0.0501,0.4379 0.0435,-0.243 0.007,0.2259 -10e-4,0.0183 -0.0563,0.1798 -0.0583,0.3527 0.2191,-0.3404 0.1121,-0.4195 0.3893,-0.8687 -0.5735,0.0526 -0.1137,-0.0425 -0.349,-0.0831 l -0.2008,-0.011 c -0.031,0.005 -0.0554,0.0155 -0.0853,0.0231 -0.0296,0.008 -0.1663,0.0663 -0.1932,0.0778 l 0.2711,-0.483 -0.2567,-0.077 c 0.4067,-0.5428 0.0409,-0.9406 -0.0387,-1.3688 l 0.0578,-0.8109 c -0.2783,0.3255 -0.1921,0.6061 -0.0586,0.9313 z" />
      </g>
      <path
         inkscape:connector-curvature="0"
         id="path70"
         style="fill:#337ab7;fill-rule:evenodd;fill-opacity:1"
         d="m 706.6801,142.3389 0.005,3.0621 0.0225,9.3338 -3.1634,0.0107 -0.0401,1.9554 14.2626,-0.0293 -0.018,-1.95 -3.8388,-0.009 -0.0595,-28.6148 3.8413,-0.0283 -0.0128,-1.9497 -14.178,0.033 -0.0588,1.9528 3.1841,-0.0112 c 0.0918,0.9823 0.0232,2.3389 0.031,3.372 0.0142,1.8714 -10e-5,1.5511 -0.8959,2.6593 -1.0495,1.2987 -2.0427,2.4979 -3.0801,3.8089 -1.0193,1.2884 -2.0525,2.5182 -3.0902,3.7997 -0.545,0.6733 -0.9866,1.2119 -1.5121,1.8734 -0.4084,0.5142 -1.1682,1.5698 -1.6378,1.9049 l -0.049,-17.3974 3.1836,-0.006 -10e-4,-1.9238 -14.2407,0.004 0.004,1.9559 3.8282,-0.008 0.079,28.6016 -3.8147,0.044 -0.0409,1.9577 14.2561,-0.0354 -0.0124,-1.9432 -3.1949,3e-4 c 0.016,-2.4473 -0.1376,-5.2447 -0.012,-7.6372 0.0448,-0.8525 1.8096,-2.6319 2.4093,-3.3652 0.3281,-0.4015 0.5849,-0.6722 0.9016,-1.0772 1.1262,-1.4395 2.2567,-2.7875 3.3873,-4.2054 l 3.5184,-4.2073 z" />
      <path
         inkscape:connector-curvature="0"
         id="path72"
         style="fill:#337ab7;fill-rule:evenodd;fill-opacity:1"
         d="m 740.9859,142.5624 0.005,3.062 0.0226,9.3339 -3.1634,0.0106 -0.0402,1.9554 14.2626,-0.0293 -0.0179,-1.95 -3.8389,-0.009 -0.0594,-28.6149 3.8413,-0.0283 -0.0128,-1.9497 -14.1781,0.033 -0.0588,1.9529 3.1842,-0.0113 c 0.0917,0.9824 0.0231,2.339 0.031,3.372 0.0141,1.8714 -2e-4,1.5512 -0.896,2.6593 -1.0495,1.2987 -2.0427,2.498 -3.0801,3.809 -1.0193,1.2883 -2.0525,2.5181 -3.0901,3.7996 -0.5451,0.6734 -0.9867,1.2119 -1.5122,1.8734 -0.4084,0.5142 -1.1682,1.5699 -1.6378,1.9049 l -0.049,-17.3973 3.1836,-0.006 -10e-4,-1.9238 -14.2407,0.004 0.004,1.956 3.8282,-0.008 0.079,28.6016 -3.8147,0.044 -0.0409,1.9578 14.2562,-0.0354 -0.0124,-1.9433 -3.195,3e-4 c 0.016,-2.4473 -0.1375,-5.2447 -0.0119,-7.6372 0.0447,-0.8524 1.8096,-2.6318 2.4092,-3.3652 0.3282,-0.4014 0.5849,-0.6722 0.9017,-1.0771 1.1262,-1.4395 2.2567,-2.7875 3.3873,-4.2055 l 3.5183,-4.2072 z" />
    </g>
  </g>
</svg>
